<?xml version="1.0" standalone="no"?>
<!DOCTYPE svg PUBLIC "-//W3C//DTD SVG 20010904//EN"
 "http://www.w3.org/TR/2001/REC-SVG-20010904/DTD/svg10.dtd">
<svg version="1.0" xmlns="http://www.w3.org/2000/svg"
 width="3249.000000pt" height="3249.000000pt" viewBox="0 0 3249.000000 3249.000000"
 preserveAspectRatio="xMidYMid meet">

<g transform="translate(0.000000,3249.000000) scale(0.100000,-0.100000)"
fill="#000000" stroke="none">
<path d="M13810 30560 c-201 -4 -435 -12 -520 -18 -85 -6 -329 -11 -541 -11
-227 -1 -398 -5 -415 -11 -16 -5 -155 -14 -309 -20 -154 -6 -329 -14 -390 -20
-60 -5 -182 -11 -270 -13 -88 -2 -214 -9 -280 -16 -272 -27 -454 -41 -520 -41
-39 0 -125 -7 -190 -15 -66 -8 -154 -15 -197 -15 -42 0 -129 -6 -195 -14 -65
-8 -173 -17 -239 -20 -67 -3 -134 -10 -149 -16 -14 -5 -63 -10 -108 -11 -45 0
-104 -4 -132 -10 -27 -5 -98 -13 -157 -18 -59 -5 -140 -14 -180 -20 -102 -14
-239 -31 -333 -41 -44 -4 -114 -13 -155 -19 -126 -18 -250 -32 -355 -41 -55
-4 -127 -13 -160 -19 -64 -11 -177 -26 -315 -41 -47 -5 -107 -14 -135 -19 -48
-9 -127 -20 -300 -41 -44 -5 -96 -14 -115 -19 -31 -9 -87 -17 -236 -37 l-41
-6 -6 -14020 c-3 -7711 -3 -14027 0 -14034 4 -12 483 -14 3184 -14 l3179 0 0
5579 c0 3069 3 5586 6 5595 6 14 94 16 903 16 1179 0 1651 -16 1952 -66 48 -8
104 -14 125 -14 22 0 71 -6 109 -14 122 -25 188 -38 240 -46 28 -4 82 -15 120
-25 39 -9 95 -22 125 -29 30 -7 66 -17 80 -23 46 -20 160 -61 205 -73 37 -10
116 -40 170 -65 22 -10 60 -26 85 -37 25 -11 52 -24 60 -29 8 -5 22 -12 30
-15 8 -3 22 -10 30 -15 8 -5 20 -11 25 -13 6 -2 17 -7 25 -10 8 -3 31 -16 50
-27 19 -12 53 -32 75 -43 22 -12 68 -41 103 -64 35 -23 66 -42 68 -42 3 0 69
-48 147 -107 95 -71 193 -158 297 -263 157 -158 174 -176 245 -265 22 -27 43
-52 46 -55 6 -6 69 -90 89 -120 8 -12 20 -28 25 -34 21 -24 134 -196 200 -306
82 -136 121 -208 210 -390 76 -155 89 -183 140 -305 8 -19 21 -50 29 -67 13
-32 32 -80 63 -163 9 -22 22 -54 29 -72 8 -17 14 -40 14 -50 0 -10 4 -23 9
-28 9 -10 64 -159 80 -220 5 -16 13 -41 19 -55 5 -14 18 -52 27 -85 10 -33 23
-76 30 -95 7 -19 20 -62 30 -95 9 -33 21 -73 27 -90 5 -16 14 -46 18 -65 4
-19 13 -48 18 -65 6 -16 17 -56 26 -87 9 -32 23 -83 31 -113 9 -30 22 -80 30
-110 8 -30 22 -79 30 -107 8 -29 16 -64 19 -78 5 -25 15 -66 41 -165 24 -92
36 -140 45 -180 4 -22 18 -80 29 -130 12 -49 26 -108 30 -130 4 -22 13 -58 19
-80 5 -22 18 -74 27 -115 30 -135 49 -216 85 -365 7 -27 16 -68 21 -90 15 -74
44 -201 69 -295 6 -25 15 -63 19 -85 13 -61 31 -135 47 -185 8 -25 14 -54 14
-66 0 -11 6 -40 14 -65 7 -24 21 -78 30 -119 10 -41 24 -102 32 -135 9 -33 21
-85 29 -115 7 -30 18 -75 25 -100 6 -25 15 -66 20 -92 5 -26 13 -56 19 -67 6
-11 11 -30 11 -42 0 -12 6 -45 14 -73 8 -28 22 -80 31 -116 23 -90 44 -167 61
-221 8 -26 14 -53 14 -62 0 -8 7 -39 16 -68 8 -30 22 -78 29 -107 8 -28 21
-77 30 -107 8 -30 21 -80 30 -110 8 -30 21 -80 30 -110 8 -30 21 -79 29 -108
8 -28 22 -79 31 -112 9 -33 23 -82 30 -110 36 -127 43 -154 60 -215 9 -36 23
-83 30 -105 7 -22 20 -69 30 -105 9 -36 23 -83 29 -105 7 -22 21 -67 31 -100
9 -33 22 -73 27 -90 6 -16 14 -46 18 -65 4 -19 13 -48 19 -65 6 -16 25 -77 42
-135 72 -245 294 -931 319 -985 5 -11 18 -47 29 -80 11 -33 30 -85 41 -115 12
-30 27 -72 34 -92 6 -20 15 -40 19 -44 4 -4 7 -14 7 -23 0 -9 6 -28 14 -43 8
-15 17 -40 21 -57 4 -17 11 -33 16 -36 5 -4 9 -13 9 -22 0 -8 6 -29 14 -46 7
-18 23 -57 35 -87 12 -30 26 -64 31 -75 5 -11 25 -58 44 -105 44 -108 51 -123
106 -234 l45 -91 3274 -3 c1801 -1 3278 1 3283 6 4 4 -1 26 -11 47 -21 43 -47
103 -75 175 -10 25 -24 59 -31 75 -7 17 -21 50 -30 75 -10 25 -24 59 -31 77
-8 17 -14 37 -14 45 0 8 -4 18 -8 24 -5 5 -19 41 -31 79 -12 39 -29 84 -37
102 -8 17 -14 40 -14 50 0 10 -4 23 -8 29 -5 5 -26 63 -47 129 -21 66 -44 134
-51 152 -8 17 -14 36 -14 43 0 12 -24 90 -41 135 -4 11 -17 54 -30 95 -12 41
-27 93 -34 115 -7 22 -21 67 -30 100 -10 33 -24 77 -31 98 -8 20 -14 46 -14
56 0 10 -7 32 -15 47 -8 16 -15 38 -15 49 0 10 -6 37 -14 60 -8 22 -22 67 -31
100 -9 33 -23 80 -31 105 -8 25 -14 54 -14 66 0 11 -4 24 -9 30 -5 5 -14 29
-19 54 -6 25 -20 79 -32 120 -12 41 -24 89 -26 105 -3 17 -12 44 -20 62 -8 17
-14 41 -14 54 0 13 -6 41 -14 64 -8 22 -22 69 -31 105 -24 93 -45 168 -61 220
-8 25 -14 55 -14 68 0 13 -5 32 -10 43 -6 10 -15 38 -20 61 -11 52 -27 116
-45 183 -8 28 -21 79 -31 115 -9 36 -22 88 -30 115 -7 28 -20 79 -29 115 -22
87 -44 165 -61 220 -8 25 -14 53 -14 64 0 10 -6 39 -14 65 -19 60 -36 125 -93
341 -8 30 -20 78 -28 105 -7 28 -21 79 -30 115 -9 36 -22 88 -30 115 -23 87
-36 139 -41 165 -3 14 -11 48 -19 75 -8 28 -21 79 -30 115 -9 36 -23 90 -32
120 -24 90 -40 151 -58 220 -23 92 -44 167 -61 221 -7 26 -14 55 -14 65 0 11
-6 39 -14 64 -8 25 -22 74 -31 110 -9 36 -23 88 -30 115 -8 28 -21 79 -31 115
-37 146 -45 177 -59 221 -8 26 -15 55 -15 65 0 11 -6 39 -14 64 -8 25 -22 74
-31 110 -9 36 -22 88 -30 115 -12 46 -23 88 -61 235 -8 30 -21 76 -29 101 -8
26 -15 55 -15 65 0 11 -7 39 -15 64 -14 43 -20 65 -60 220 -10 36 -24 89 -31
117 -8 29 -21 79 -30 110 -8 32 -21 81 -29 108 -8 28 -19 70 -25 95 -6 25 -18
70 -26 100 -19 71 -42 163 -54 218 -5 23 -14 50 -19 60 -5 9 -12 36 -16 59 -4
24 -11 45 -16 49 -5 3 -9 16 -9 29 0 14 -6 42 -14 62 -7 21 -21 65 -31 98 -9
33 -23 78 -30 100 -7 22 -22 74 -34 115 -13 41 -27 84 -31 95 -5 11 -12 36
-16 55 -3 19 -10 40 -14 45 -4 6 -11 26 -15 45 -4 19 -11 41 -15 50 -5 8 -18
44 -30 80 -12 36 -25 72 -30 81 -5 9 -12 33 -15 53 -4 20 -11 39 -16 42 -5 3
-9 12 -9 21 0 8 -6 29 -13 46 -8 18 -19 48 -26 67 -22 63 -63 175 -71 195 -5
11 -19 47 -31 80 -13 33 -27 64 -31 70 -4 5 -8 15 -8 23 0 11 -11 40 -50 127
-35 79 -50 115 -50 121 0 4 -14 37 -31 73 -65 140 -79 168 -113 244 -20 42
-36 82 -36 87 0 6 -4 10 -10 10 -5 0 -10 5 -10 11 0 13 -63 139 -126 254 -24
44 -58 107 -74 140 -33 65 -52 97 -61 105 -3 3 -15 25 -28 50 -13 25 -35 63
-50 85 -15 22 -30 47 -34 55 -4 8 -16 29 -27 45 -11 17 -23 37 -27 45 -3 8
-19 31 -35 51 -15 20 -28 39 -28 42 0 3 -20 34 -43 69 -24 35 -46 68 -48 74
-2 6 -14 24 -27 40 -12 16 -59 79 -104 139 -45 61 -87 115 -93 120 -7 6 -34
39 -60 75 -27 36 -52 67 -55 70 -4 3 -51 57 -105 120 -127 148 -398 419 -545
545 -63 55 -117 102 -120 105 -3 4 -54 43 -115 88 -60 45 -114 85 -120 90 -5
4 -28 19 -50 32 -22 13 -45 29 -52 35 -33 28 -41 33 -61 39 -12 4 -22 12 -22
17 0 5 -5 9 -11 9 -6 0 -42 20 -79 45 -37 24 -75 48 -86 52 -10 3 -46 23 -79
43 -54 32 -355 183 -430 215 -16 8 -65 29 -107 49 l-78 35 0 55 c0 64 15 85
80 110 25 10 57 24 72 32 14 8 34 14 45 14 10 0 27 7 37 15 11 8 26 15 33 15
7 0 42 14 76 30 35 17 69 30 75 30 9 0 51 19 92 42 8 4 22 11 30 14 8 3 22 10
30 15 8 5 22 12 30 15 30 12 145 65 160 74 8 5 35 19 60 31 120 57 173 85 182
96 6 7 18 13 28 13 10 0 23 7 30 15 7 8 20 15 29 15 9 0 22 5 28 11 11 11 34
25 78 49 134 71 318 185 559 345 159 106 218 146 226 156 3 3 30 23 60 44 30
21 57 41 60 44 3 4 34 29 70 56 76 58 302 246 345 287 17 15 54 49 84 75 69
60 451 442 511 511 25 28 64 72 88 98 23 25 61 69 85 96 23 28 51 60 62 73 11
13 30 36 42 51 12 16 30 38 40 49 10 11 29 34 41 50 50 67 68 89 85 106 9 11
17 21 17 24 0 2 21 33 48 68 26 36 54 75 62 87 8 12 20 28 25 34 22 24 115
167 115 176 0 6 5 10 10 10 6 0 10 6 10 13 0 8 9 22 20 32 11 10 20 24 20 32
0 7 3 13 8 13 4 0 12 9 17 20 6 11 49 84 96 162 48 79 101 170 120 203 18 33
47 87 65 120 39 70 193 380 237 475 29 61 39 85 71 162 30 71 36 85 55 130 12
26 21 54 21 62 0 8 4 17 10 21 5 3 14 20 19 38 5 18 19 57 31 87 12 30 25 69
30 85 5 17 14 46 21 65 6 19 17 51 24 70 7 19 18 51 25 70 6 19 16 51 20 70
19 77 34 126 46 157 8 17 14 40 14 51 0 11 7 36 15 55 8 20 15 50 15 67 0 17
5 41 11 52 6 11 15 44 20 72 12 77 29 157 40 193 5 17 14 65 18 105 5 40 14
86 20 101 6 16 11 53 11 83 0 31 5 64 10 75 6 10 15 76 20 147 5 70 13 141 19
157 5 17 12 126 16 244 3 118 10 222 15 232 13 24 13 479 0 532 -6 23 -14 157
-20 297 -5 140 -13 278 -19 305 -5 28 -10 86 -11 130 0 44 -7 105 -15 135 -8
30 -15 80 -15 110 0 31 -7 82 -15 113 -8 32 -15 79 -15 105 -1 26 -7 65 -15
87 -8 22 -15 58 -15 80 -1 22 -7 58 -15 80 -8 22 -15 58 -15 80 -1 22 -7 58
-15 80 -8 22 -15 55 -15 73 0 18 -7 49 -15 69 -8 19 -15 48 -15 64 0 15 -5 40
-11 56 -7 15 -15 48 -19 73 -4 25 -12 59 -18 75 -12 33 -28 98 -42 162 -5 23
-13 50 -18 60 -9 17 -16 42 -43 148 -6 22 -14 44 -20 50 -5 5 -9 18 -9 30 0
11 -7 33 -15 49 -8 15 -15 38 -15 50 0 12 -7 31 -15 42 -8 10 -15 25 -15 32 0
8 -6 28 -14 45 -8 18 -24 63 -37 100 -12 37 -26 70 -30 73 -5 3 -9 12 -9 21 0
14 -10 41 -45 118 -7 17 -21 48 -31 70 -9 22 -30 67 -45 101 -16 33 -29 64
-29 68 0 8 -66 148 -139 296 -39 78 -94 180 -129 240 -11 19 -33 60 -49 90
-15 30 -30 57 -34 60 -3 3 -30 46 -59 95 -30 50 -60 96 -67 103 -7 7 -13 18
-13 23 0 5 -5 15 -10 22 -41 48 -50 62 -50 74 0 7 -3 13 -7 13 -5 0 -19 17
-33 38 -34 51 -226 308 -255 340 -27 31 -48 56 -90 107 -16 21 -57 65 -90 100
-33 34 -87 93 -120 130 -83 94 -255 266 -350 350 -43 39 -95 86 -116 105 -20
19 -53 49 -73 65 -61 50 -129 109 -148 128 -10 9 -20 17 -23 17 -3 0 -13 8
-24 18 -10 9 -34 28 -52 42 -18 14 -41 33 -51 43 -10 9 -20 17 -23 17 -3 0
-14 8 -24 18 -34 30 -50 42 -58 42 -4 0 -21 14 -37 30 -16 16 -37 32 -47 35
-11 4 -19 11 -19 16 0 5 -7 9 -15 9 -9 0 -18 7 -21 15 -4 8 -11 15 -16 15 -5
0 -36 20 -68 45 -32 25 -62 45 -67 45 -5 0 -23 13 -41 29 -17 16 -41 32 -52
36 -11 3 -20 11 -20 16 0 5 -5 9 -10 9 -9 0 -65 35 -80 50 -7 7 -41 28 -65 40
-11 6 -33 19 -50 30 -16 11 -39 24 -50 30 -11 6 -33 19 -50 30 -16 11 -39 24
-50 30 -11 6 -33 19 -50 30 -16 11 -36 22 -42 25 -7 3 -19 7 -25 10 -7 3 -26
14 -43 24 -81 52 -559 290 -612 306 -13 3 -23 11 -23 16 0 5 -7 9 -16 9 -9 0
-28 7 -42 15 -15 8 -49 24 -77 35 -27 12 -66 28 -85 36 -19 8 -43 19 -52 24
-10 6 -23 10 -30 10 -7 1 -31 9 -53 20 -22 11 -46 19 -52 20 -7 0 -13 5 -13
10 0 6 -8 10 -17 10 -10 0 -31 7 -46 15 -15 8 -43 17 -62 21 -19 3 -35 10 -35
15 0 5 -8 9 -17 9 -10 0 -31 7 -47 15 -15 8 -33 15 -40 15 -6 0 -24 7 -39 15
-15 8 -43 17 -63 21 -19 3 -36 10 -39 14 -3 5 -23 11 -45 15 -22 4 -42 10 -45
15 -3 5 -23 11 -45 15 -22 4 -42 11 -46 16 -3 5 -13 9 -22 9 -9 0 -30 7 -46
15 -15 8 -34 15 -42 15 -7 0 -61 16 -120 35 -58 19 -114 35 -124 35 -9 0 -20
3 -24 7 -4 5 -29 13 -54 20 -104 26 -138 35 -157 43 -25 10 -95 29 -160 42
-27 6 -57 14 -65 18 -9 4 -36 11 -60 15 -25 4 -49 10 -55 14 -9 6 -50 15 -175
42 -30 6 -62 15 -72 20 -9 4 -40 11 -70 14 -29 4 -62 11 -73 15 -11 5 -45 14
-75 20 -134 27 -200 39 -265 50 -38 6 -86 16 -105 22 -19 6 -62 14 -95 19 -91
11 -196 29 -231 40 -16 5 -66 12 -110 15 -43 4 -84 11 -90 15 -6 5 -47 12 -90
15 -43 3 -93 10 -110 15 -17 5 -75 14 -130 19 -54 5 -130 14 -169 19 -115 16
-264 33 -370 42 -55 4 -131 13 -170 18 -38 6 -104 11 -145 11 -41 0 -97 7
-124 15 -27 8 -86 15 -130 15 -45 0 -126 7 -180 15 -55 8 -149 15 -209 15 -60
0 -155 6 -211 14 -55 8 -220 17 -365 21 -165 4 -272 10 -285 17 -25 13 -2563
20 -3156 8z m-290 -3405 c263 -7 368 -13 454 -26 38 -5 118 -12 177 -16 119
-7 141 -17 153 -78 3 -16 11 -59 18 -95 8 -36 19 -75 26 -87 6 -12 12 -39 12
-61 0 -22 7 -53 15 -68 8 -16 15 -45 15 -65 0 -20 7 -50 15 -65 8 -16 15 -37
15 -46 0 -9 4 -19 9 -22 4 -3 11 -31 14 -61 3 -31 10 -62 15 -68 5 -7 12 -39
16 -71 4 -33 11 -65 16 -71 6 -7 12 -33 15 -58 2 -26 11 -60 20 -76 8 -17 15
-39 15 -49 0 -34 64 -72 123 -72 18 -1 43 -7 57 -15 14 -8 41 -15 60 -15 19 0
46 -7 60 -15 14 -8 36 -14 51 -15 14 0 30 -5 36 -11 6 -6 35 -14 64 -19 81
-14 189 -39 210 -50 10 -6 29 -10 42 -10 14 0 41 -7 60 -15 20 -8 49 -15 64
-15 15 0 37 -7 47 -15 11 -8 36 -15 55 -15 20 -1 47 -7 61 -15 14 -8 43 -14
66 -15 22 0 49 -7 60 -15 10 -8 34 -15 52 -15 18 0 45 -6 60 -14 15 -7 52 -16
83 -20 47 -6 59 -4 81 14 14 11 29 20 33 20 4 0 24 14 45 30 21 17 41 30 45
30 3 0 33 20 65 45 32 25 61 45 65 45 4 0 33 20 65 45 32 25 62 45 67 45 5 0
24 13 43 30 19 16 39 29 43 30 4 0 13 5 20 10 32 27 107 80 112 80 4 0 24 14
45 30 21 17 45 30 53 30 9 0 20 6 24 14 13 22 300 216 320 216 7 0 21 -4 31
-9 9 -5 33 -16 52 -24 48 -21 291 -137 310 -147 8 -5 51 -27 95 -50 44 -23 94
-50 110 -61 17 -10 39 -23 51 -28 11 -5 50 -27 85 -48 35 -22 71 -42 79 -46 8
-4 24 -13 35 -19 11 -7 51 -33 90 -57 108 -67 219 -139 232 -151 7 -5 17 -10
23 -10 5 0 10 -5 10 -10 0 -6 8 -14 18 -18 42 -18 92 -55 97 -73 4 -10 -2 -33
-12 -51 -31 -59 -86 -138 -95 -138 -4 0 -8 -9 -8 -19 0 -11 -6 -26 -13 -33
-15 -16 -46 -62 -70 -107 -17 -32 -27 -45 -54 -76 -7 -7 -13 -20 -13 -28 0 -8
-13 -30 -30 -48 -16 -19 -32 -42 -36 -51 -3 -10 -9 -18 -14 -18 -5 0 -11 -13
-15 -30 -4 -16 -10 -30 -14 -30 -4 0 -15 -17 -25 -37 -10 -21 -31 -54 -47 -74
-16 -20 -29 -41 -29 -47 0 -5 -19 -36 -43 -68 -46 -63 -77 -119 -77 -139 0 -7
30 -44 68 -82 37 -38 99 -104 137 -148 39 -43 104 -113 145 -156 41 -43 107
-112 145 -155 39 -42 90 -99 115 -126 105 -116 185 -191 209 -197 24 -7 78 -4
301 14 41 3 145 10 230 15 85 6 171 14 190 20 19 5 103 12 185 16 197 10 212
11 268 24 26 7 93 10 149 8 l100 -3 34 -40 c18 -22 36 -51 39 -64 3 -13 16
-38 29 -55 12 -17 30 -52 40 -78 9 -25 24 -52 32 -58 7 -7 14 -17 14 -22 0 -6
6 -24 14 -41 8 -18 17 -39 20 -47 3 -8 17 -35 31 -59 14 -24 25 -56 25 -71 0
-15 7 -33 15 -40 8 -7 17 -27 21 -46 3 -19 10 -37 15 -40 5 -3 9 -13 9 -22 0
-9 7 -30 15 -46 8 -15 15 -36 15 -45 0 -10 7 -26 15 -37 8 -10 15 -28 15 -39
0 -11 9 -38 20 -60 11 -22 19 -48 20 -57 0 -9 4 -19 9 -22 5 -4 12 -25 16 -49
4 -23 13 -61 20 -83 21 -62 11 -82 -54 -110 -31 -14 -65 -29 -76 -34 -11 -5
-42 -18 -70 -29 -27 -10 -63 -26 -80 -35 -16 -9 -37 -16 -45 -16 -8 0 -42 -14
-75 -30 -33 -16 -67 -30 -75 -30 -8 0 -24 -7 -34 -15 -11 -8 -28 -15 -38 -15
-10 0 -35 -11 -56 -24 -21 -13 -53 -27 -71 -31 -19 -4 -54 -18 -79 -31 -25
-13 -49 -24 -54 -24 -6 0 -24 -6 -41 -14 -82 -37 -126 -55 -172 -70 -27 -9
-63 -23 -80 -31 -59 -27 -103 -45 -112 -45 -5 0 -16 -12 -25 -27 -13 -23 -17
-84 -22 -363 -4 -184 -9 -404 -12 -488 -3 -98 -1 -165 6 -186 11 -33 13 -34
115 -77 11 -4 50 -22 87 -38 37 -17 71 -31 75 -31 4 -1 26 -9 48 -20 22 -11
43 -19 48 -20 4 0 25 -11 46 -25 22 -13 52 -27 68 -31 15 -4 48 -17 73 -30 25
-12 68 -32 95 -44 59 -25 68 -29 158 -69 38 -17 71 -31 74 -31 6 0 46 -18 150
-66 39 -19 75 -34 80 -34 17 0 90 -39 103 -55 11 -14 11 -27 0 -83 -7 -37 -17
-74 -22 -82 -4 -8 -19 -49 -33 -90 -32 -99 -48 -145 -79 -214 -14 -32 -26 -62
-26 -67 0 -16 -194 -400 -241 -476 -12 -21 -28 -47 -34 -58 -52 -93 -69 -116
-93 -122 -24 -6 -244 9 -387 27 -38 5 -97 9 -131 9 -34 1 -74 5 -90 11 -16 5
-83 14 -149 19 -208 17 -348 31 -410 41 -33 5 -104 13 -158 16 l-99 6 -414
-417 c-228 -229 -417 -427 -420 -439 -3 -15 5 -41 26 -77 17 -30 36 -66 43
-81 6 -16 15 -28 19 -28 4 0 17 -21 29 -47 12 -25 27 -53 35 -60 8 -8 14 -19
14 -25 0 -5 9 -23 21 -39 11 -17 35 -55 51 -87 17 -31 47 -82 67 -112 20 -30
47 -75 59 -100 27 -53 40 -75 67 -115 12 -17 26 -41 33 -55 19 -39 64 -114 72
-120 4 -3 10 -14 14 -26 9 -30 -37 -78 -96 -100 -10 -3 -18 -10 -18 -14 0 -7
-113 -80 -124 -80 -3 0 -25 -13 -48 -30 -22 -16 -47 -30 -53 -30 -7 0 -18 -7
-25 -15 -7 -8 -19 -15 -27 -15 -7 0 -19 -5 -26 -10 -46 -39 -61 -50 -69 -50
-5 0 -29 -13 -53 -30 -24 -16 -53 -30 -64 -30 -12 0 -21 -3 -21 -8 0 -4 -21
-18 -47 -31 -27 -12 -57 -28 -68 -34 -122 -65 -209 -107 -220 -107 -8 0 -36
-13 -62 -30 -26 -17 -52 -30 -59 -30 -7 0 -39 -13 -72 -30 -34 -17 -65 -30
-69 -30 -4 0 -36 -12 -70 -26 l-63 -27 -42 29 c-61 41 -204 146 -264 194 -28
22 -56 40 -61 40 -5 0 -23 11 -39 25 -16 14 -53 42 -83 63 -29 20 -68 49 -86
65 -18 15 -37 27 -42 27 -5 0 -22 14 -38 30 -16 17 -34 30 -40 30 -6 0 -25 14
-43 30 -18 17 -36 30 -38 30 -3 0 -32 20 -64 45 -32 25 -61 45 -65 45 -4 0
-32 20 -64 45 -47 37 -65 45 -98 45 -22 0 -54 -7 -69 -15 -16 -8 -45 -15 -65
-15 -20 0 -53 -7 -72 -15 -20 -8 -52 -15 -70 -15 -19 0 -51 -7 -70 -15 -20 -8
-54 -15 -76 -15 -22 0 -42 -4 -46 -9 -3 -5 -31 -13 -63 -16 -31 -4 -76 -13
-100 -21 -23 -8 -57 -14 -74 -14 -32 0 -116 -24 -160 -46 -14 -8 -39 -14 -56
-14 -16 0 -49 -7 -72 -15 -23 -8 -57 -15 -74 -15 -17 0 -49 -7 -71 -15 -22 -8
-56 -14 -76 -15 -19 0 -44 -7 -55 -15 -10 -8 -28 -15 -40 -15 -23 0 -48 -47
-59 -110 -3 -19 -10 -44 -14 -55 -14 -34 -62 -198 -71 -245 -11 -50 -30 -119
-65 -225 -13 -38 -26 -88 -30 -110 -4 -22 -10 -44 -15 -50 -4 -5 -11 -32 -15
-60 -4 -27 -10 -54 -15 -60 -4 -5 -10 -21 -13 -35 -7 -34 -37 -114 -45 -122
-4 -3 -72 -10 -152 -14 -80 -4 -161 -8 -180 -9 -19 -2 -130 -6 -246 -10 -190
-6 -214 -5 -238 10 l-26 17 0 933 c0 738 3 934 13 938 6 2 27 -3 46 -10 26
-11 40 -12 60 -3 14 5 53 9 86 8 71 -3 306 12 319 19 12 8 56 12 201 19 66 3
125 10 131 15 7 5 52 12 100 15 49 3 108 12 132 20 23 7 71 14 106 14 35 0 80
7 99 15 20 8 52 15 70 15 19 0 51 7 70 15 20 8 51 15 70 15 18 0 42 7 53 15
10 8 28 15 39 15 11 0 38 7 60 15 22 8 58 14 80 15 23 0 45 4 51 10 14 14 132
50 164 50 15 0 33 7 40 15 7 8 22 15 34 15 12 0 31 7 42 15 10 8 32 15 47 15
16 0 42 7 58 15 16 8 42 22 58 30 16 8 37 15 48 15 10 0 27 7 37 15 11 8 28
15 38 15 11 0 43 14 73 30 30 17 63 30 73 30 11 0 25 7 32 15 7 8 18 15 25 15
12 0 38 11 95 41 8 4 35 17 60 29 46 21 73 35 148 77 23 12 63 34 89 48 25 14
61 36 79 50 18 14 38 25 44 25 7 0 29 12 49 28 20 15 44 32 53 37 9 6 51 34
93 62 41 29 79 53 83 53 4 0 29 20 57 45 27 25 54 45 60 45 6 0 21 10 35 23
14 12 48 40 75 62 70 55 99 81 176 155 37 36 82 79 101 96 46 43 178 183 178
190 0 3 13 17 29 32 16 15 72 86 126 157 54 72 101 132 106 133 5 2 9 8 9 13
0 5 20 38 45 75 25 36 45 68 45 71 0 6 72 125 80 133 9 9 118 234 125 260 8
28 41 106 55 132 6 10 10 26 10 35 0 10 7 27 15 37 8 11 15 31 15 45 0 14 7
39 15 55 8 15 15 37 15 48 0 10 6 31 14 46 7 15 16 53 19 84 3 32 10 72 16 90
18 59 41 211 45 302 3 49 10 94 16 100 13 13 13 327 -1 381 -10 38 -14 70 -22
181 -3 29 -7 56 -11 62 -10 16 -37 143 -43 202 -3 30 -12 64 -19 75 -8 11 -14
27 -14 36 0 9 -7 30 -15 45 -8 16 -15 37 -15 46 0 9 -4 19 -9 23 -5 3 -12 19
-16 36 -4 17 -13 42 -21 57 -8 15 -14 36 -14 47 0 11 -7 29 -15 39 -8 11 -15
28 -15 38 0 10 -3 18 -8 18 -7 0 -42 63 -56 100 -4 8 -17 33 -31 55 -13 22
-24 48 -25 58 0 9 -5 17 -10 17 -6 0 -14 10 -19 23 -5 12 -21 39 -35 60 -14
21 -26 40 -26 42 0 2 -14 24 -30 47 -72 103 -90 129 -90 134 0 8 -88 122 -134
175 -23 25 -61 70 -86 100 -71 86 -332 341 -424 414 -21 17 -61 49 -89 73 -29
24 -77 60 -107 79 -30 20 -59 43 -63 50 -4 7 -13 13 -20 13 -7 1 -28 14 -47
30 -19 17 -38 30 -43 30 -5 0 -26 13 -46 29 -20 15 -46 31 -58 35 -13 4 -23
11 -23 16 0 4 -8 11 -17 14 -18 6 -25 11 -98 57 -22 14 -47 29 -55 32 -8 4
-33 18 -55 30 -22 13 -53 30 -70 38 -56 29 -95 49 -122 63 -16 8 -35 17 -43
20 -8 3 -22 10 -30 14 -8 5 -31 16 -50 25 -19 8 -65 29 -103 46 -37 17 -72 31
-78 31 -6 0 -23 6 -37 14 -55 28 -125 56 -232 92 -41 14 -79 29 -84 35 -6 5
-21 9 -35 9 -15 0 -39 7 -55 15 -15 8 -38 15 -50 15 -12 0 -31 7 -42 15 -10 8
-30 15 -42 15 -13 0 -38 6 -55 14 -46 19 -113 36 -182 46 -33 5 -61 13 -63 19
-2 6 -18 11 -37 11 -18 0 -50 6 -71 13 -22 8 -68 17 -103 20 -35 4 -69 11 -75
16 -6 4 -45 11 -86 14 -41 3 -95 10 -120 16 -70 16 -200 31 -370 41 -85 5
-171 14 -191 20 -20 5 -131 10 -246 10 -149 0 -212 3 -221 12 -17 17 -17 1869
-1 1885 6 6 25 10 43 8 17 -3 123 -7 236 -10z m10 -2231 c135 -3 281 -10 325
-15 44 -5 128 -13 187 -19 60 -5 116 -13 125 -18 10 -5 54 -12 98 -16 44 -4
84 -11 90 -15 5 -5 39 -11 74 -14 35 -3 68 -10 74 -16 6 -6 28 -11 48 -11 20
0 65 -9 99 -20 34 -11 73 -20 86 -20 12 0 26 -4 29 -10 3 -5 18 -10 33 -10 15
0 40 -7 56 -15 15 -8 37 -15 48 -15 11 0 34 -6 51 -14 18 -7 61 -22 97 -31 36
-10 77 -24 92 -32 15 -7 34 -13 43 -13 10 0 33 -7 53 -16 21 -8 51 -21 67 -28
17 -7 46 -20 65 -29 19 -8 53 -23 75 -32 64 -26 108 -46 138 -61 16 -8 33 -14
39 -14 6 0 32 -13 57 -29 26 -15 58 -32 72 -36 13 -4 38 -18 55 -31 17 -12 43
-26 58 -30 14 -3 26 -10 26 -14 0 -5 10 -12 23 -15 12 -4 36 -17 52 -30 17
-12 40 -25 53 -29 12 -4 22 -12 22 -17 0 -5 6 -9 13 -9 17 0 195 -115 281
-182 255 -198 429 -360 615 -573 46 -52 171 -218 219 -290 15 -22 37 -51 50
-65 12 -14 25 -36 29 -50 3 -14 16 -38 29 -55 12 -16 26 -43 30 -60 4 -16 20
-49 35 -73 16 -24 29 -46 29 -50 0 -4 20 -47 44 -97 62 -124 106 -248 106
-300 0 -24 5 -45 11 -47 6 -2 13 -26 16 -53 3 -28 11 -64 19 -82 20 -45 46
-223 46 -318 0 -44 3 -85 8 -90 18 -21 -8 -491 -30 -543 -6 -13 -10 -34 -10
-48 0 -29 -37 -182 -49 -205 -5 -9 -12 -42 -16 -75 -4 -32 -11 -63 -15 -69 -4
-5 -10 -25 -13 -43 -6 -30 -26 -79 -77 -187 -10 -22 -28 -60 -38 -85 -11 -25
-32 -60 -46 -79 -14 -19 -26 -41 -26 -48 0 -7 -4 -13 -10 -13 -5 0 -10 -9 -10
-19 0 -11 -7 -26 -15 -34 -8 -8 -24 -32 -35 -53 -26 -47 -82 -132 -107 -159
-10 -11 -33 -42 -52 -70 -103 -152 -342 -399 -572 -594 -20 -17 -41 -31 -45
-31 -5 0 -19 -11 -32 -24 -12 -14 -46 -40 -75 -60 -29 -20 -79 -55 -112 -79
-84 -60 -271 -174 -368 -224 -45 -23 -87 -46 -92 -50 -20 -16 -290 -143 -304
-143 -5 0 -22 -6 -38 -14 -63 -31 -219 -91 -270 -103 -13 -3 -23 -9 -23 -13 0
-5 -19 -11 -42 -15 -24 -3 -59 -12 -78 -19 -19 -7 -53 -19 -75 -26 -22 -7 -53
-18 -70 -26 -16 -7 -55 -18 -85 -23 -85 -15 -153 -30 -170 -38 -8 -3 -24 -7
-35 -8 -79 -9 -142 -19 -150 -25 -5 -4 -50 -11 -99 -14 -50 -4 -98 -12 -108
-17 -10 -6 -53 -12 -96 -15 -42 -2 -93 -9 -112 -14 -19 -6 -105 -15 -190 -20
-85 -6 -173 -12 -195 -15 -99 -10 -376 -6 -391 5 -12 11 -14 70 -12 398 l3
386 130 -2 c72 -2 191 4 265 12 74 9 172 16 216 16 47 0 100 6 124 15 23 8 58
15 77 15 18 0 50 7 70 15 19 8 51 15 70 15 18 0 50 7 70 15 19 8 50 15 68 15
18 0 52 7 75 15 23 8 57 15 75 15 18 0 38 6 44 14 7 8 28 16 49 19 43 6 338
115 422 156 19 10 53 26 75 35 22 10 47 22 55 27 8 5 38 21 65 35 142 72 223
118 246 140 14 13 28 24 32 24 16 0 179 119 286 209 101 85 276 264 339 346
83 110 179 242 185 255 4 8 16 29 27 45 11 17 22 37 26 45 3 8 10 22 15 30 17
28 91 187 124 265 7 17 17 49 24 73 6 23 16 61 22 85 7 23 15 51 19 62 11 27
27 116 35 190 11 91 7 453 -5 510 -6 28 -14 77 -19 111 -5 33 -13 69 -19 80
-19 37 -42 95 -42 105 0 6 -6 25 -14 42 -8 18 -16 41 -19 52 -13 49 -87 229
-101 244 -9 10 -16 21 -16 26 0 4 -20 38 -45 76 -25 38 -45 73 -45 78 0 5 -18
31 -40 56 -22 25 -44 54 -50 64 -14 28 -46 64 -145 168 -49 52 -92 99 -94 104
-2 9 -58 57 -251 217 -19 16 -66 50 -103 76 -38 25 -75 53 -84 61 -8 8 -21 15
-29 15 -8 0 -14 4 -14 9 0 5 -10 13 -22 17 -18 5 -133 70 -188 105 -14 9 -120
61 -165 80 -11 5 -27 13 -35 18 -34 22 -148 71 -162 71 -9 0 -30 7 -47 15 -17
8 -45 22 -62 30 -17 8 -39 15 -49 15 -11 0 -34 6 -52 14 -18 8 -60 22 -93 31
-33 10 -75 24 -93 31 -18 8 -43 14 -56 14 -13 0 -40 7 -59 15 -20 8 -53 15
-74 15 -21 1 -49 7 -63 15 -14 8 -52 15 -85 15 -36 0 -68 6 -79 15 -13 10 -43
15 -87 15 -37 0 -96 6 -131 14 -56 13 -349 28 -500 26 -106 -2 -98 -36 -98
409 0 213 3 391 7 395 4 4 17 4 28 1 11 -3 130 -8 265 -11z"/>
</g>
</svg>
